#N canvas 1602 409 450 300 12;
#N canvas 2448 406 956 638 \$0-f2sym 0;
#X obj 116 50 inlet;
#X obj 148 109 >= 100;
#X obj 116 79 t f f;
#X obj 116 138 pack;
#X msg 116 167 \$2 \$1;
#X obj 116 197 route 1 0;
#X floatatom 116 265 5 0 0 0 - - -, f 5;
#X obj 199 327 i;
#X floatatom 199 356 5 0 0 0 - - -, f 5;
#X obj 116 293 t f f;
#X obj 116 372 -;
#X floatatom 223 391 5 0 0 0 - - -, f 5;
#X obj 116 430 f2sym;
#X symbolatom 18 418 10 0 0 0 - - -, f 10;
#X obj 116 237 / 100;
#X obj 116 401 * 100;
#X obj 116 509 pack s s;
#X obj 174 480 f2sym;
#X msg 193 445 1, f 1;
#X symbolatom 204 509 10 0 0 0 - - -, f 10;
#X msg 116 538 \$2\$1;
#X obj 117 568 t s;
#X symbolatom 367 530 10 0 0 0 - - -, f 10;
#X obj 251 445 loadbang;
#X obj 363 268 f2sym;
#X obj 367 558 outlet;
#X connect 0 0 2 0;
#X connect 1 0 3 1;
#X connect 2 0 3 0;
#X connect 2 1 1 0;
#X connect 3 0 4 0;
#X connect 4 0 5 0;
#X connect 5 0 14 0;
#X connect 5 1 24 0;
#X connect 6 0 9 0;
#X connect 7 0 8 0;
#X connect 7 0 10 1;
#X connect 9 0 10 0;
#X connect 9 1 7 0;
#X connect 10 0 11 0;
#X connect 10 0 15 0;
#X connect 12 0 13 0;
#X connect 12 0 16 0;
#X connect 14 0 6 0;
#X connect 15 0 12 0;
#X connect 16 0 20 0;
#X connect 17 0 16 1;
#X connect 17 0 19 0;
#X connect 18 0 17 0;
#X connect 20 0 21 0;
#X connect 21 0 22 0;
#X connect 22 0 25 0;
#X connect 23 0 18 0;
#X connect 24 0 22 0;
#X restore 93 63 pd \$0-f2sym;
