#N canvas 329 140 956 866 12;
#X floatatom 445 104 12 0 0 1 value - -, f 12;
#X symbolatom 445 81 15 0 0 1 event_code - -, f 15;
#X obj 400 240 unpack s s f;
#X obj 114 173 route key abs, f 17;
#X floatatom 241 85 6 0 0 3 Y - #0-abs_y, f 6;
#X floatatom 299 85 6 0 0 3 Z - #0-abs_z, f 6;
#X floatatom 357 85 6 0 0 3 RZ - #0-abs_rz, f 6;
#X obj 112 209 route abs_x abs_y abs_z abs_rz;
#N canvas 1307 61 260 410 \$0-autosave 0;
#X obj 34 29 loadbang;
#X obj 34 87 t b b;
#X obj 34 156 tgl 15 0 empty empty empty 17 7 0 10 #fcfcfc #000000
#000000 1 1;
#X obj 34 180 metro 1000;
#X obj 34 58 del 4000;
#X msg 169 89 5;
#X obj 169 118 * 60000;
#X floatatom 169 147 9 0 0 0 - - -, f 9;
#X msg 34 209 menusave;
#X obj 118 35 bng 15 250 50 0 empty empty empty 17 7 0 10 #fcfcfc #000000
#000000;
#X obj 14 305 s pd-gamepad.pd;
#X connect 0 0 4 0;
#X connect 1 0 2 0;
#X connect 1 1 5 0;
#X connect 2 0 3 0;
#X connect 3 0 8 0;
#X connect 4 0 1 0;
#X connect 5 0 6 0;
#X connect 6 0 7 0;
#X connect 6 0 3 1;
#X connect 8 0 10 0;
#X connect 9 0 4 0;
#X restore 422 355 pd \$0-autosave;
#X obj 298 504 loadbang;
#X msg 298 533 1;
#X floatatom 298 562 5 0 0 1 lb-1 - #0-lbng, f 5;
#X floatatom 183 85 5 0 0 3 X - #0-abs_x, f 5;
#N canvas 1148 417 450 375 \$0-sttorage 0;
#X restore 402 458 pd \$0-sttorage;
#N canvas 2284 201 956 866 \$0-sttorage2 0;
#X obj 196 211 unpack s f, f 23;
#N canvas 0 0 450 300 (subpatch) 0;
#X array scale_maj 100 float 3 black black;
#A 0 0 2 4 5 7 9 11 12 14 16 17 19 21 23 24 0 0 0 0 0 0 0 0 0 0 0 0
0 0 0 0 0 0 0 0 0 0 0 0 0 0 0 0 0 0 0 0 0 0 0 0 0 0 0 0 0 0 0 0 0 0
0 0 0 0 0 0 0 0 0 0 0 0 0 0 0 0 0 0 0 0 0 0 0 0 0 0 0 0 0 0 0 0 0 0
0 0 0 0 0;
#X coords 0 100 100 -1 200 140 1;
#X restore 434 195 graph;
#X obj 30 -5 route key msc;
#X obj 196 309 array get scale_maj;
#X floatatom 260 289 1 0 0 1 - #0-lbng -, f 1;
#X obj 196 448 +;
#X msg 387 399 \$2;
#X obj 196 243 bng 15 250 50 0 empty empty empty 17 7 0 10 #fcfcfc
#000000 #000000;
#X obj 196 276 f;
#N canvas 1735 167 956 891 pitchbender 0;
#X obj 567 48 cnv 15 368 440 empty empty empty 20 12 0 14 #22371b #404040
0;
#X obj -4 33 cnv 15 564 443 empty empty empty 20 12 0 14 #44003f #404040
0;
#X floatatom 193 181 3 0 0 0 pb-grad #0-pb-gradient -, f 3;
#X obj 192 223 f, f 2;
#X obj 231 223 t b f;
#X obj 192 231 *;
#X obj 192 284 -;
#X obj 192 312 * -1;
#X obj 231 167 sel 255;
#X msg 231 191 256;
#X floatatom 210 260 5 0 0 1 pb-maxval #0-pb-maxval -, f 5;
#X obj 290 417 s pb-out;
#X obj 338 134 t f b;
#X obj 257 134 t f b;
#X obj 290 356 pack;
#X obj 408 257 v js2;
#X obj 344 258 v js1;
#X msg 290 385 \$2 \$1;
#X text 10 26 FOR PITCHBEND AND MODWHEEL;
#X obj 710 227 t b f f;
#X obj 634 183 sel 8192;
#X msg 634 208 127;
#X obj 634 340 pack f f f;
#X msg 634 373 \$3 \$2 \$1;
#X obj 634 416 unpack f f f;
#X obj 634 440 i, f 2;
#X obj 634 466 midiout 1;
#X floatatom 795 266 5 0 0 0 - - -, f 5;
#X obj 795 266 / 128;
#X obj 795 295 + 64;
#X obj 733 266 mod 128;
#X obj 634 233 t b f f;
#X obj 634 312 f;
#X obj 634 99 r pb-out;
#X obj 634 124 t a a;
#X msg 634 150 \$2;
#X msg 755 92 \$1;
#X text 705 466 Pitchbend MIDI OUT;
#X obj 755 121 + 223;
#X obj 22 64 vradio 10 0 0 16 js1-channel empty js1 -3 -13 0 10 #fcfcfc
#000000 #31d53e 0;
#X obj 71 64 vradio 10 0 0 16 js2-channel empty js2 -1 -13 0 10 #fcfcfc
#000000 #31d53e 0;
#X floatatom 13 234 5 0 0 0 - js1-chanGUI -, f 5;
#X floatatom 74 233 5 0 0 0 - js2-chanGUI -, f 5;
#X text 11 266 set MIDI channel;
#X obj 77 535 cnv 15 345 441 empty empty empty 20 12 0 14 #521a1a #404040
0;
#X obj 113 675 - 128;
#X obj 113 728 change;
#X obj 113 701 clip 0 127;
#X obj 113 943 ctlout;
#X obj 113 620 t f b;
#X obj 245 616 t f b;
#X obj 113 778 pack;
#X obj 277 702 v js2;
#X obj 233 702 v js1;
#X msg 113 810 \$1 1 \$2;
#X text 143 542 Mod Wheels;
#X text 184 943 Mod Wheel MIDI OUT;
#X text 576 54 Pitchbend to MIDI code;
#X obj 738 891 s, f 4;
#X obj 738 856 f, f 10;
#X obj 738 780 unpack s f;
#X obj 738 814 t b s;
#X symbolatom 837 834 10 0 0 0 - - -, f 10;
#X floatatom 838 876 5 0 0 0 - - -, f 5;
#X floatatom 408 286 5 0 0 0 - - -, f 5;
#X floatatom 344 287 5 0 0 0 - - -, f 5;
#X floatatom 570 640 5 0 0 1 pb-maxval - #0-pb-maxval, f 5;
#X floatatom 510 644 3 0 0 0 pb-grad - #0-pb-gradient, f 3;
#X obj 581 266 r \$0-ch;
#X obj 754 146 s \$0-ch;
#X obj 621 551 loadbang;
#X msg 563 607 8192;
#X msg 499 611 64;
#X obj 548 869 v js2;
#X obj 447 869 v js1;
#X floatatom 548 899 5 0 0 0 - - js2-chanGUI, f 5;
#X floatatom 447 899 5 0 0 0 - - js1-chanGUI, f 5;
#X obj 548 803 t b f;
#X obj 447 803 t b f;
#X obj 580 836 + 1;
#X obj 479 836 + 1;
#X obj 548 773 r js2-channel;
#X obj 447 773 r js1-channel;
#X obj 691 644 s js1-channel;
#X obj 737 614 s js2-channel;
#X msg 692 621 0;
#X msg 735 572 0;
#X floatatom 11 438 5 0 0 3 X - X-AXIS_1, f 5;
#X floatatom 63 438 5 0 0 3 Y - Y-AXIS_1, f 5;
#X floatatom 115 438 5 0 0 3 Z - Z-AXIS_1, f 5;
#X floatatom 167 438 5 0 0 3 W - W-AXIS_1, f 5;
#X obj 11 414 * -1;
#X obj 11 391 - 255;
#X obj 115 414 * -1;
#X obj 115 391 - 255;
#X obj 167 414 * -1;
#X obj 167 391 - 255;
#X obj 63 414 * -1;
#X obj 63 391 - 255;
#X floatatom 260 33 5 0 0 0 X X-AXIS_1 -, f 5;
#X floatatom 341 33 5 0 0 0 Z Z-AXIS_1 -, f 5;
#X floatatom 113 595 5 0 0 2 Y Y-AXIS_1 -, f 5;
#X floatatom 245 591 5 0 0 2 W W-AXIS_1 -, f 5;
#X floatatom 64 362 5 0 0 2 Y #0-abs_y -, f 5;
#X floatatom 169 362 5 0 0 2 RZ #0-abs_rz -, f 5;
#X floatatom 24 316 5 0 0 0 X #0-abs_x -, f 5;
#X floatatom 105 316 5 0 0 0 Z #0-abs_z -, f 5;
#X obj 488 28 tgl 41 0 empty \$0-start_tgl_inv st\ inv 4 10 0 10 #fcfcfc
#000000 #60c300 1 1;
#X obj 416 32 tgl 41 0 empty \$0-sel_tgl_inv sel\ inv -1 7 0 10 #fcfcfc
#000000 #60c300 1 1;
#X obj 260 111 spigot;
#X obj 341 111 spigot;
#X obj 488 78 t b f;
#X floatatom 436 121 5 0 0 0 - - -, f 5;
#X obj 436 92 &&;
#X connect 2 0 3 1;
#X connect 3 0 5 0;
#X connect 4 0 3 0;
#X connect 4 1 5 1;
#X connect 5 0 6 0;
#X connect 6 0 7 0;
#X connect 7 0 14 0;
#X connect 8 0 9 0;
#X connect 8 1 4 0;
#X connect 9 0 4 0;
#X connect 10 0 6 1;
#X connect 12 0 8 0;
#X connect 12 1 15 0;
#X connect 13 0 8 0;
#X connect 13 1 16 0;
#X connect 14 0 17 0;
#X connect 15 0 14 1;
#X connect 15 0 64 0;
#X connect 16 0 14 1;
#X connect 16 0 65 0;
#X connect 17 0 11 0;
#X connect 19 0 32 0;
#X connect 19 1 30 0;
#X connect 19 2 28 0;
#X connect 20 0 21 0;
#X connect 20 1 19 0;
#X connect 21 0 31 0;
#X connect 22 0 23 0;
#X connect 23 0 24 0;
#X connect 24 0 25 0;
#X connect 24 1 25 0;
#X connect 24 2 25 0;
#X connect 25 0 26 0;
#X connect 28 0 29 0;
#X connect 29 0 22 2;
#X connect 30 0 22 1;
#X connect 31 0 32 0;
#X connect 31 1 22 1;
#X connect 31 2 22 2;
#X connect 32 0 22 0;
#X connect 33 0 34 0;
#X connect 34 0 35 0;
#X connect 34 1 36 0;
#X connect 35 0 20 0;
#X connect 36 0 38 0;
#X connect 38 0 69 0;
#X connect 45 0 47 0;
#X connect 46 0 51 0;
#X connect 47 0 46 0;
#X connect 49 0 45 0;
#X connect 49 1 53 0;
#X connect 50 0 45 0;
#X connect 50 1 52 0;
#X connect 51 0 54 0;
#X connect 52 0 51 1;
#X connect 53 0 51 1;
#X connect 54 0 48 0;
#X connect 59 0 58 0;
#X connect 59 0 63 0;
#X connect 60 0 61 0;
#X connect 60 1 59 1;
#X connect 61 0 59 0;
#X connect 61 1 58 1;
#X connect 61 1 62 0;
#X connect 68 0 32 1;
#X connect 70 0 72 0;
#X connect 70 0 71 0;
#X connect 70 0 85 0;
#X connect 70 0 86 0;
#X connect 71 0 66 0;
#X connect 72 0 67 0;
#X connect 73 0 75 0;
#X connect 74 0 76 0;
#X connect 77 0 73 0;
#X connect 77 1 79 0;
#X connect 78 0 74 0;
#X connect 78 1 80 0;
#X connect 79 0 73 0;
#X connect 80 0 74 0;
#X connect 81 0 77 0;
#X connect 82 0 78 0;
#X connect 85 0 83 0;
#X connect 86 0 84 0;
#X connect 91 0 87 0;
#X connect 92 0 91 0;
#X connect 93 0 89 0;
#X connect 94 0 93 0;
#X connect 95 0 90 0;
#X connect 96 0 95 0;
#X connect 97 0 88 0;
#X connect 98 0 97 0;
#X connect 99 0 109 0;
#X connect 100 0 110 0;
#X connect 101 0 49 0;
#X connect 102 0 50 0;
#X connect 103 0 98 0;
#X connect 104 0 96 0;
#X connect 105 0 92 0;
#X connect 106 0 94 0;
#X connect 107 0 111 0;
#X connect 108 0 113 0;
#X connect 109 0 13 0;
#X connect 110 0 12 0;
#X connect 111 0 113 0;
#X connect 111 1 113 1;
#X connect 113 0 112 0;
#X connect 113 0 110 1;
#X connect 113 0 109 1;
#X restore 211 12 pd pitchbender;
#N canvas 1173 189 272 644 panicer 0;
#X floatatom 60 201 3 0 0 0 - - -, f 3;
#X msg 60 144 16, f 2;
#X obj 35 171 ct1u;
#X obj 35 120 t b b;
#X obj 35 20 bng 73 250 50 0 empty \$0-midipanic PANIC 78 44 0 48 #fcfcfc
#000000 #8d0000;
#X obj 67 258 + 16;
#X obj 35 337 ctlout;
#X obj 35 230 t f f;
#X msg 35 291 127 123 \$1;
#X connect 1 0 2 1;
#X connect 2 0 7 0;
#X connect 2 1 0 0;
#X connect 3 0 2 0;
#X connect 3 1 1 0;
#X connect 4 0 3 0;
#X connect 5 0 8 0;
#X connect 7 0 8 0;
#X connect 7 1 5 0;
#X connect 8 0 6 0;
#X restore 210 -17 pd panicer;
#X obj 94 152 spigot;
#N canvas 1802 212 956 866 \$0-hammerons 0;
#X obj 38 50 route btn_12 btn_13 btn_14 btn_15, f 51;
#X obj 36 30 inlet;
#X obj 378 395 outlet;
#X obj 26 489 outlet;
#X obj 30 293 +;
#X msg 202 128 \$1 -1;
#X msg 151 128 \$1 -2;
#X msg 98 129 \$1 1;
#X msg 34 129 \$1 2;
#X obj 33 201 route 1 0;
#X floatatom 291 236 5 0 0 2 lastNote #0-lastNote -, f 5;
#X floatatom 329 332 5 0 0 0 - - -, f 5;
#X obj 38 79 t f f;
#X obj 125 79 t f f;
#X obj 211 79 t f f;
#X obj 275 79 t f f;
#X obj 24 446 pack;
#X obj 304 119 s \$0-pacc;
#X obj 202 415 r \$0-pacc;
#X floatatom 202 444 5 0 0 0 - - -, f 5;
#X obj 199 288 +;
#X obj 270 293 f;
#X obj 207 242 t f f;
#X floatatom 118 248 5 0 0 2 lastNote #0-lastNote -, f 5;
#X obj 108 297 f;
#X obj 33 230 t f f;
#X msg 57 355 \$1 0;
#X connect 0 0 12 0;
#X connect 0 1 13 0;
#X connect 0 2 14 0;
#X connect 0 3 15 0;
#X connect 0 4 2 0;
#X connect 1 0 0 0;
#X connect 4 0 16 0;
#X connect 4 0 11 0;
#X connect 5 0 9 0;
#X connect 6 0 9 0;
#X connect 7 0 9 0;
#X connect 8 0 9 0;
#X connect 9 0 4 0;
#X connect 9 0 25 0;
#X connect 9 1 22 0;
#X connect 10 0 4 1;
#X connect 10 0 20 1;
#X connect 10 0 21 1;
#X connect 12 0 8 0;
#X connect 12 1 17 0;
#X connect 13 0 7 0;
#X connect 13 1 17 0;
#X connect 14 0 6 0;
#X connect 14 1 17 0;
#X connect 15 0 5 0;
#X connect 15 1 17 0;
#X connect 16 0 3 0;
#X connect 18 0 16 1;
#X connect 18 0 19 0;
#X connect 20 0 16 0;
#X connect 20 0 11 0;
#X connect 21 0 16 0;
#X connect 22 0 20 0;
#X connect 22 1 21 0;
#X connect 23 0 24 1;
#X connect 24 0 26 0;
#X connect 25 1 24 0;
#X connect 26 0 16 0;
#X restore 94 185 pd \$0-hammerons;
#X floatatom 236 330 5 0 0 3 lastNote - #0-lastNote, f 5;
#X obj 94 367 t a a;
#X msg 94 396 \$1;
#X obj 54 -42 inlet;
#X floatatom 215 423 5 0 0 1 octave #0-octave_offset -, f 5;
#X obj 130 97 tgl 41 0 empty \$0-start_tgl_inv st\ inv 4 10 0 10 #fcfcfc
#000000 #60c300 1 1;
#N canvas 424 475 956 995 \$0-midiout 0;
#X obj 350 26 inlet;
#X obj 453 25 inlet;
#X floatatom 321 134 5 0 0 0 - - -, f 5;
#X msg 378 138 96;
#X obj 362 277 unpack f f f;
#X floatatom 521 297 3 0 0 0 - - #0-last_velocity, f 3;
#X floatatom 544 297 3 0 0 0 - - #0-last_note, f 3;
#X floatatom 568 297 3 0 0 0 - - -, f 3;
#X msg 360 235 \$2 \$1 \$3;
#X msg 460 217 64 64 144;
#X msg 546 217 64 0 128;
#X obj 362 317 midiout 1;
#X obj 353 176 pack f f f;
#X msg 413 138 144;
#X msg 498 137 128;
#X msg 463 137 0;
#X obj 455 91 sel 1 0;
#X obj 38 26 inlet;
#X obj 34 561 pgmout 1;
#X obj 37 164 spigot;
#X obj 34 313 v prgchng;
#X obj 110 313 v prgchng;
#X obj 33 430 t b f;
#X obj 32 463 v prgchng;
#X floatatom 116 504 5 0 0 0 - - -, f 5;
#X obj 34 279 sel 1;
#X obj 109 277 sel 1;
#X floatatom 54 392 5 0 0 0 - - -, f 5;
#X floatatom 110 384 5 0 0 0 - - -, f 5;
#X obj 110 352 + 0.5;
#X obj 34 352 - 0.5;
#X obj 34 190 route btn_4 btn_5 btn_6 btn_7 btn_8 btn_9;
#X obj 116 224 sel 1;
#X obj 167 222 sel 1;
#X floatatom 117 557 5 0 0 1 program_change_CH1 - program_change_CH1
, f 5;
#X obj 34 506 mod 128;
#X obj 77 93 tgl 41 0 empty \$0-sel_tgl select 1 10 0 10 #fcfcfc #000000
#60c300 0 1;
#X connect 0 0 2 0;
#X connect 1 0 16 0;
#X connect 2 0 12 0;
#X connect 3 0 12 1;
#X connect 4 0 5 0;
#X connect 4 0 11 0;
#X connect 4 1 6 0;
#X connect 4 1 11 0;
#X connect 4 2 7 0;
#X connect 4 2 11 0;
#X connect 8 0 4 0;
#X connect 9 0 8 0;
#X connect 10 0 8 0;
#X connect 12 0 8 0;
#X connect 13 0 12 2;
#X connect 14 0 12 2;
#X connect 15 0 12 1;
#X connect 16 0 3 0;
#X connect 16 0 13 0;
#X connect 16 1 14 0;
#X connect 16 1 15 0;
#X connect 17 0 19 0;
#X connect 19 0 31 0;
#X connect 20 0 30 0;
#X connect 21 0 29 0;
#X connect 22 0 23 0;
#X connect 22 1 23 0;
#X connect 23 0 24 0;
#X connect 23 0 35 0;
#X connect 25 0 20 0;
#X connect 26 0 21 0;
#X connect 29 0 28 0;
#X connect 29 0 22 0;
#X connect 30 0 27 0;
#X connect 30 0 22 0;
#X connect 31 0 25 0;
#X connect 31 1 26 0;
#X connect 31 2 32 0;
#X connect 31 3 33 0;
#X connect 35 0 34 0;
#X connect 35 0 18 0;
#X connect 36 0 19 1;
#X restore 33 470 pd \$0-midiout;
#N canvas 1866 435 956 527 \$0-startside 0;
#X obj 141 61 inlet;
#X floatatom 88 170 12 0 0 0 - - -, f 12;
#X obj 77 150 route msc_scan;
#X obj 77 192 - 589825;
#X msg 376 299 60;
#X msg 337 299 72;
#X floatatom 468 350 5 0 0 1 octave - #0-octave_offset, f 5;
#X msg 460 299 48;
#X msg 415 299 36;
#X obj 86 332 spigot;
#X obj 342 230 spigot;
#X msg 146 390 0, f 2;
#X msg 186 390 1, f 2;
#X msg 116 390 2, f 2;
#X msg 85 390 3, f 2;
#X floatatom 84 427 5 0 0 0 set_note - #0-set_note, f 5;
#X obj 125 265 tgl 41 0 empty \$0-start_tgl_inv st\ inv 4 10 0 10 #fcfcfc
#000000 #60c300 1 1;
#X obj 378 139 tgl 41 0 empty \$0-start_tgl start 7 10 0 10 #fcfcfc
#000000 #60c300 0 1;
#X msg 496 299 84;
#X msg 527 297 96;
#X msg 607 297 24;
#X obj 342 257 sel 12 13 14 15 6 7 10;
#X obj 85 360 sel 0 1 2 3 8 9 10 11 12 13 14 15;
#X connect 0 0 2 0;
#X connect 2 0 1 0;
#X connect 2 0 3 0;
#X connect 3 0 10 0;
#X connect 3 0 9 0;
#X connect 4 0 6 0;
#X connect 5 0 6 0;
#X connect 7 0 6 0;
#X connect 8 0 6 0;
#X connect 9 0 22 0;
#X connect 10 0 21 0;
#X connect 11 0 15 0;
#X connect 12 0 15 0;
#X connect 13 0 15 0;
#X connect 14 0 15 0;
#X connect 16 0 9 1;
#X connect 17 0 10 1;
#X connect 18 0 6 0;
#X connect 19 0 6 0;
#X connect 20 0 6 0;
#X connect 21 0 5 0;
#X connect 21 1 4 0;
#X connect 21 2 8 0;
#X connect 21 3 7 0;
#X connect 21 4 18 0;
#X connect 21 5 19 0;
#X connect 21 6 20 0;
#X connect 22 0 14 0;
#X connect 22 1 13 0;
#X connect 22 2 11 0;
#X connect 22 3 12 0;
#X connect 22 12 15 0;
#X restore 309 95 pd \$0-startside;
#X floatatom 234 246 5 0 0 1 set_note #0-set_note -, f 5;
#N canvas 1602 277 956 677 \$0-start_sel_jb12 0;
#X obj 225 216 - 1;
#X obj 225 245 * -1;
#X obj 260 217 tgl 41 0 \$0-start_tgl empty start 7 10 0 10 #fcfcfc
#000000 #60c300 0 1;
#X obj 225 268 tgl 41 0 \$0-start_tgl_inv empty st\ inv 4 10 0 10 #fcfcfc
#000000 #60c300 1 1;
#X obj 93 210 - 1;
#X obj 93 239 * -1;
#X obj 128 211 tgl 41 0 \$0-sel_tgl empty select 1 10 0 10 #fcfcfc
#000000 #60c300 0 1;
#X obj 93 262 tgl 41 0 \$0-sel_tgl_inv empty sel\ inv -1 7 0 10 #fcfcfc
#000000 #60c300 1 1;
#X obj 95 18 inlet;
#X obj 245 454 outlet;
#X obj 107 430 &&;
#X floatatom 163 445 5 0 0 0 - - -, f 5;
#X obj 157 386 t b f;
#X obj 107 489 sel 1;
#X obj 105 561 s clock_var_in;
#X obj 107 522 tgl 30 0 empty empty empty 17 7 0 10 #fcfcfc #000000
#000000 0 1;
#X obj 107 469 change;
#X obj 103 149 route btn_8 btn_9 btn_10 btn_11, f 39;
#X obj 412 429 &&;
#X floatatom 468 444 5 0 0 0 - - -, f 5;
#X obj 462 385 t b f;
#X obj 412 488 sel 1;
#X obj 412 468 change;
#X obj 410 560 s midipanic;
#X connect 0 0 1 0;
#X connect 1 0 3 0;
#X connect 4 0 5 0;
#X connect 5 0 7 0;
#X connect 8 0 17 0;
#X connect 10 0 11 0;
#X connect 10 0 16 0;
#X connect 12 0 10 0;
#X connect 12 1 10 1;
#X connect 13 0 15 0;
#X connect 15 0 14 0;
#X connect 16 0 13 0;
#X connect 17 0 4 0;
#X connect 17 0 6 0;
#X connect 17 0 10 0;
#X connect 17 1 2 0;
#X connect 17 1 0 0;
#X connect 17 1 12 0;
#X connect 17 2 18 0;
#X connect 17 3 20 0;
#X connect 17 4 9 0;
#X connect 18 0 19 0;
#X connect 18 0 22 0;
#X connect 20 0 18 0;
#X connect 20 1 18 1;
#X connect 21 0 23 0;
#X connect 22 0 21 0;
#X restore 94 74 pd \$0-start_sel_jb12;
#X obj 207 107 tgl 41 0 empty \$0-sel_tgl_inv sel\ inv -1 7 0 10 #fcfcfc
#000000 #60c300 1 1;
#X connect 0 0 7 0;
#X connect 0 1 19 2;
#X connect 2 0 19 0;
#X connect 2 0 22 0;
#X connect 2 1 20 0;
#X connect 3 0 13 0;
#X connect 3 0 5 0;
#X connect 4 0 3 1;
#X connect 5 0 19 1;
#X connect 6 0 19 2;
#X connect 7 0 8 0;
#X connect 8 0 3 0;
#X connect 11 0 12 0;
#X connect 12 0 14 0;
#X connect 12 1 0 0;
#X connect 14 0 15 0;
#X connect 14 1 6 0;
#X connect 15 0 5 0;
#X connect 16 0 2 0;
#X connect 17 0 5 1;
#X connect 18 0 11 1;
#X connect 21 0 8 0;
#X connect 22 0 11 0;
#X connect 23 0 11 1;
#X restore 413 408 pd \$0-sttorage2;
#X symbolatom 445 59 15 0 0 1 event_type - -, f 15;
#X obj 216 -18 cnv 36 86 15 empty \$0-open-canvas 8 101 16 0 14 #e0e0e0
#000000 0;
#X obj 56 27 hradio 15 0 1 38 empty empty empty 0 -6 0 8 #d8fcd8 #000000
#000000 14;
#X obj 56 -21 inlet;
#X obj 55 284 int;
#X msg 197 382 set \$1 \$2;
#X obj 55 342 trigger bang anything;
#X obj 197 362 list;
#X msg 56 316 open \$1;
#X msg 188 504 close;
#X msg 188 469 refresh;
#X msg 105 441 poll 2;
#X msg 181 443 open 14;
#X obj 105 477 hid;
#X obj 105 413 t b a;
#X obj 105 545 outlet;
#X floatatom 45 50 5 0 0 1 program_change_CH1 program_change_CH1 -
, f 5;
#X floatatom 44 71 5 0 0 1 program_change_CH10 program_change_CH10
-, f 5;
#X connect 2 0 15 0;
#X connect 2 1 1 0;
#X connect 2 2 0 0;
#X connect 3 1 7 0;
#X connect 7 0 12 0;
#X connect 7 1 4 0;
#X connect 7 2 5 0;
#X connect 7 3 6 0;
#X connect 9 0 10 0;
#X connect 10 0 11 0;
#X connect 17 0 19 0;
#X connect 18 0 17 0;
#X connect 19 0 23 0;
#X connect 20 0 29 0;
#X connect 21 0 29 0;
#X connect 21 1 22 0;
#X connect 22 0 20 0;
#X connect 23 0 21 0;
#X connect 24 0 28 0;
#X connect 25 0 28 0;
#X connect 26 0 28 0;
#X connect 27 0 28 0;
#X connect 28 0 30 0;
#X connect 28 0 2 0;
#X connect 28 0 14 0;
#X connect 28 0 3 0;
#X connect 29 0 26 0;
#X connect 29 1 27 0;
#X coords 0 -1 1 1 596 105 2 41 25;
