#N canvas 1619 297 787 781 12;
#X symbolatom 99 122 14 0 0 1 addr_1 phone_ip_address -, f 14;
#X floatatom 156 88 5 0 0 1 port-out netport-out dduumm, f 5;
#X floatatom 97 210 5 0 0 1 port-in - netport-in, f 5;
#X floatatom 97 233 5 0 0 1 port-out - netport-out, f 5;
#X msg 37 210 54322;
#X msg 37 233 54321;
#X obj 37 185 bng 20 250 50 0 empty \$0-lbnglbng LB 4 8 0 10 #fcfcfc
#000000 #2c2c2c;
#X obj 32 378 netreceive -u -b;
#X msg 32 352 listen \$1;
#X floatatom 32 285 5 0 0 1 port-in netport-in -, f 5;
#X floatatom 143 285 5 0 0 1 port-out netport-out -, f 5;
#X obj 55 307 bng 17 250 50 0 empty CONNECTNET CONNECT 17 5 0 10 #fcfcfc
#000000 #00e419;
#N canvas 642 44 638 676 oscparse_tOSC 0;
#X obj 25 61 list trim;
#X obj 25 36 oscparse;
#X obj 106 160 list length;
#X obj 25 160 t a a;
#X obj 25 184 list prepend;
#X obj 25 231 list trim;
#X obj 25 207 list split 2;
#X obj 315 93 spigot;
#X obj 315 121 print osc_in;
#X obj 353 64 tgl 25 0 empty tgl-print-1 print1 27 10 0 10 #fcfcfc
#000000 #00d211 0 1;
#X obj 25 8 inlet;
#X obj 25 260 outlet;
#X obj 211 18 route accxyz;
#N canvas 1242 44 638 651 accccc 0;
#X obj 54 510 cnv 15 525 72 empty empty empty 20 12 0 14 #e0e0e0 #404040
0;
#X floatatom 405 349 5 0 0 0 - - -, f 5;
#X floatatom 476 368 5 0 0 0 - - -, f 5;
#X floatatom 546 353 5 0 0 0 - - -, f 5;
#X obj 405 377 bng 15 250 50 0 empty empty empty 17 7 0 10 #fcfcfc
#000000 #000000;
#X obj 477 540 bng 15 250 50 0 accxhit empty accxhit 17 7 0 10 #fcfcfc
#000000 #000000;
#X obj 476 396 bng 15 250 50 0 empty empty empty 17 7 0 10 #fcfcfc
#000000 #000000;
#X msg 476 420 0;
#X obj 546 381 bng 15 250 50 0 empty empty empty 17 7 0 10 #fcfcfc
#000000 #000000;
#X msg 546 405 1;
#X floatatom 476 449 5 0 0 0 - - -, f 5;
#X obj 476 477 change;
#X obj 498 326 moses 9;
#X obj 476 506 sel 1 2;
#X msg 405 401 2;
#X obj 397 531 bng 15 250 50 0 accxhit2 empty accxhit22 17 7 0 10 #fcfcfc
#000000 #000000;
#X obj 405 321 moses -9.5;
#X floatatom 210 338 5 0 0 0 - - -, f 5;
#X floatatom 281 357 5 0 0 0 - - -, f 5;
#X floatatom 351 342 5 0 0 0 - - -, f 5;
#X obj 210 366 bng 15 250 50 0 empty empty empty 17 7 0 10 #fcfcfc
#000000 #000000;
#X obj 282 529 bng 15 250 50 0 accxhit empty accxhit 17 7 0 10 #fcfcfc
#000000 #000000;
#X obj 281 385 bng 15 250 50 0 empty empty empty 17 7 0 10 #fcfcfc
#000000 #000000;
#X msg 281 409 0;
#X obj 351 370 bng 15 250 50 0 empty empty empty 17 7 0 10 #fcfcfc
#000000 #000000;
#X msg 351 394 1;
#X floatatom 281 438 5 0 0 0 - - -, f 5;
#X obj 281 466 change;
#X obj 303 315 moses 9;
#X obj 281 495 sel 1 2;
#X msg 210 390 2;
#X obj 202 520 bng 15 250 50 0 accxhit2 empty accxhit22 17 7 0 10 #fcfcfc
#000000 #000000;
#X obj 210 310 moses -9.5;
#X obj 106 51 unpack f f f;
#X floatatom 106 80 4 0 0 3 accx - accx, f 4;
#X floatatom 143 82 4 0 0 3 accy - accy, f 4;
#X floatatom 180 82 4 0 0 3 accz - accz, f 4;
#X obj 131 273 hsl 128 15 -10 10 0 0 empty empty empty -2 -8 0 10 #fcfcfc
#000000 #000000 0 1;
#X obj 146 132 vsl 15 128 -10 10 0 0 empty empty empty 0 -9 0 10 #fcfcfc
#000000 #000000 0 1;
#X obj 169 132 vsl 15 128 -10 10 0 0 empty empty empty 0 -9 0 10 #fcfcfc
#000000 #000000 0 1;
#X obj 89 20 inlet;
#X floatatom 52 325 5 0 0 0 - - -, f 5;
#X obj 139 383 bng 15 250 50 0 empty empty empty 17 7 0 10 #fcfcfc
#000000 #000000;
#X msg 139 407 1;
#X obj 99 396 bng 15 250 50 0 empty empty empty 17 7 0 10 #fcfcfc #000000
#000000;
#X msg 99 420 0;
#X obj 100 552 bng 15 250 50 0 accyhit empty accyhit 17 7 0 10 #fcfcfc
#000000 #000000;
#X floatatom 99 461 5 0 0 0 - - -, f 5;
#X obj 99 489 change;
#X obj 99 518 sel 1;
#X obj 52 296 moses -7.5;
#X obj 99 328 moses 7.5;
#X floatatom 254 142 5 0 0 0 - - -, f 5;
#X obj 254 113 < 0;
#X obj 254 170 sel 1;
#X obj 254 199 bng 15 250 50 0 accxhit empty accxhit 17 7 0 10 #fcfcfc
#000000 #000000;
#X connect 1 0 4 0;
#X connect 2 0 6 0;
#X connect 3 0 8 0;
#X connect 4 0 14 0;
#X connect 6 0 7 0;
#X connect 7 0 10 0;
#X connect 8 0 9 0;
#X connect 9 0 10 0;
#X connect 10 0 11 0;
#X connect 11 0 13 0;
#X connect 12 0 2 0;
#X connect 12 1 3 0;
#X connect 13 0 5 0;
#X connect 13 1 15 0;
#X connect 14 0 10 0;
#X connect 16 0 1 0;
#X connect 16 1 12 0;
#X connect 17 0 20 0;
#X connect 18 0 22 0;
#X connect 19 0 24 0;
#X connect 20 0 30 0;
#X connect 22 0 23 0;
#X connect 23 0 26 0;
#X connect 24 0 25 0;
#X connect 25 0 26 0;
#X connect 26 0 27 0;
#X connect 27 0 29 0;
#X connect 28 0 18 0;
#X connect 28 1 19 0;
#X connect 29 0 21 0;
#X connect 29 1 31 0;
#X connect 30 0 26 0;
#X connect 32 0 17 0;
#X connect 32 1 28 0;
#X connect 33 0 34 0;
#X connect 33 0 37 0;
#X connect 33 1 35 0;
#X connect 33 1 38 0;
#X connect 33 2 36 0;
#X connect 33 2 39 0;
#X connect 38 0 50 0;
#X connect 40 0 33 0;
#X connect 42 0 43 0;
#X connect 43 0 47 0;
#X connect 44 0 45 0;
#X connect 45 0 47 0;
#X connect 47 0 48 0;
#X connect 48 0 49 0;
#X connect 49 0 46 0;
#X connect 50 0 41 0;
#X connect 50 1 51 0;
#X connect 51 0 44 0;
#X connect 51 1 42 0;
#X connect 52 0 54 0;
#X connect 53 0 52 0;
#X connect 54 0 55 0;
#X restore 212 55 pd accccc;
#X connect 0 0 3 0;
#X connect 0 0 12 0;
#X connect 1 0 0 0;
#X connect 2 0 4 1;
#X connect 3 0 4 0;
#X connect 3 1 2 0;
#X connect 4 0 6 0;
#X connect 5 0 11 0;
#X connect 6 1 5 0;
#X connect 7 0 8 0;
#X connect 9 0 7 1;
#X connect 10 0 1 0;
#X connect 12 0 13 0;
#X connect 12 1 7 0;
#X restore 32 401 pd oscparse_tOSC;
#X obj 56 327 v porti;
#X obj 143 327 v porto;
#X obj 32 424 s parsedOSC;
#X symbolatom 31 601 15 0 0 3 phone_addr phone_ip_address -, f 15
;
#X floatatom 142 601 5 0 0 3 port-out netport-out -, f 5;
#X obj 27 571 netsend -u -b;
#N canvas 2154 116 660 480 oscformat-TOUCH 0;
#X obj 18 69 list split 1;
#X obj 18 162 oscformat;
#X obj 58 104 list prepend set;
#X obj 58 131 list trim;
#X obj 18 278 outlet;
#X obj 18 9 r udpOUT2;
#X obj 18 240 list trim;
#X obj 18 217 list prepend send;
#X obj 210 72 list split 2;
#X obj 210 40 r udpOUT2-2;
#X obj 237 100 list prepend set;
#X obj 237 127 list trim;
#X obj 210 156 oscformat;
#X obj 208 246 list trim;
#X obj 208 223 list prepend send;
#X msg 448 27 okokok 1 label1;
#X obj 456 208 t a;
#X msg 456 179 kok 1 label1;
#X msg 404 303 1 1 led1;
#X msg 516 250 kok cfg ipaddr_osc;
#X connect 0 0 1 0;
#X connect 0 1 2 0;
#X connect 1 0 7 0;
#X connect 2 0 3 0;
#X connect 3 0 1 0;
#X connect 5 0 0 0;
#X connect 6 0 4 0;
#X connect 7 0 6 0;
#X connect 8 0 12 0;
#X connect 8 1 10 0;
#X connect 9 0 8 0;
#X connect 10 0 11 0;
#X connect 11 0 12 0;
#X connect 12 0 14 0;
#X connect 13 0 4 0;
#X connect 14 0 13 0;
#X connect 15 0 0 0;
#X connect 16 0 0 0;
#X connect 17 0 16 0;
#X connect 18 0 16 0;
#X connect 19 0 16 0;
#X restore 27 486 pd oscformat-TOUCH;
#N canvas 948 162 638 382 netoutt 0;
#X msg 170 262 disconnect;
#X msg 26 259 connect \$2 \$1;
#X obj 26 234 pack f s;
#X obj 26 318 outlet;
#X obj 26 5 inlet;
#X obj 169 6 inlet;
#X obj 26 90 symbol;
#X obj 26 176 v porto;
#X floatatom 26 202 5 0 0 0 - - -, f 5;
#X symbolatom 44 53 12 0 0 2 tOSC_IP_address phone_ip_address -, f
12;
#X obj 26 141 t b s b;
#X connect 0 0 3 0;
#X connect 1 0 3 0;
#X connect 2 0 1 0;
#X connect 4 0 6 0;
#X connect 5 0 0 0;
#X connect 6 0 10 0;
#X connect 7 0 8 0;
#X connect 8 0 2 0;
#X connect 9 0 6 0;
#X connect 10 0 7 0;
#X connect 10 1 2 1;
#X connect 10 2 0 0;
#X restore 47 543 pd netoutt;
#X obj 47 526 bng 15 250 50 0 empty CONNECTNET CONNECT -5 -7 0 10 #fcfcfc
#000000 #00e419;
#X obj 114 526 bng 15 250 50 0 empty DISCONNECTNET DISCONNECT -5 -7
0 10 #fcfcfc #000000 #00e419;
#X obj 251 574 netsend -u -b;
#N canvas 642 44 638 776 netoutt 0;
#X msg 170 262 disconnect;
#X msg 26 259 connect \$2 \$1;
#X obj 26 234 pack f s;
#X obj 26 318 outlet;
#X obj 26 5 inlet;
#X obj 169 6 inlet;
#X obj 26 90 symbol;
#X obj 26 176 v porto;
#X floatatom 26 202 5 0 0 0 - - -, f 5;
#X symbolatom 44 53 12 0 0 2 tOSC_IP_address2 phone_ip_address2 -,
f 12;
#X obj 26 141 t b s b;
#X connect 0 0 3 0;
#X connect 1 0 3 0;
#X connect 2 0 1 0;
#X connect 4 0 6 0;
#X connect 5 0 0 0;
#X connect 6 0 10 0;
#X connect 7 0 8 0;
#X connect 8 0 2 0;
#X connect 9 0 6 0;
#X connect 10 0 7 0;
#X connect 10 1 2 1;
#X connect 10 2 0 0;
#X restore 271 546 pd netoutt;
#X obj 271 529 bng 15 250 50 0 empty CONNECTNET2 CONNECT2 -5 -7 0 10
#fcfcfc #000000 #00e419;
#X obj 338 529 bng 15 250 50 0 empty DISCONNECTNET2 DISCONNECT2 -5
-7 0 10 #fcfcfc #000000 #00e419;
#X symbolatom 258 601 12 0 0 3 tOSC_IP_address2 phone_ip_address2 -
, f 12;
#X symbolatom 407 290 15 0 0 0 addr1 - phone_ip_address, f 15;
#X obj 407 244 t b s;
#X obj 407 267 bng 15 250 50 0 CONNECTNET empty CONNECT -48 6 0 10
#fcfcfc #000000 #00e419;
#X symbolatom 622 295 15 0 0 0 addr2 - phone_ip_address2, f 15;
#X obj 622 251 t b s;
#X obj 622 274 bng 15 250 50 0 CONNECTNET2 empty CONNECT2 -54 5 0 10
#fcfcfc #000000 #00e419;
#X obj 407 154 r dev_ipaddr;
#X obj 622 154 r dev2_ipaddr;
#X symbolatom 99 145 14 0 0 1 addr_2 phone_ip_address2 -, f 14;
#N canvas 842 121 483 282 \$0-init 0;
#X obj 108 17 loadbang;
#X obj 248 41 bng 30 250 50 0 \$0-lbnglbng empty LB 5 12 0 16 #fcfcfc
#000000 #2c2c2c;
#X obj 15 86 tgl 25 0 tgl-print-1 empty print1 27 10 0 10 #fcfcfc #000000
#00d211 0 1;
#X floatatom 16 32 1 0 0 1 LB1 only-one -, f 1;
#X obj 16 60 del 1000;
#X obj 108 168 s dev_ipaddr;
#X obj 108 88 del 4000;
#X obj 226 168 s dev2_ipaddr;
#X msg 104 219 192.168.43.178;
#X msg 222 219 192.168.1.1;
#X msg 226 126 192.168.1.5;
#N canvas 358 217 450 383 \$0-autosave 0;
#X msg 27 170 menusave;
#X obj 27 105 tgl 15 0 empty empty empty 17 7 0 10 #fcfcfc #000000
#000000 1 1;
#X obj 27 130 metro 1000;
#X msg 114 84 5;
#X obj 114 107 * 60000;
#X floatatom 114 129 8 0 0 0 - - -, f 8;
#X obj 27 7 loadbang;
#X obj 27 76 t b b;
#X obj 27 36 del 5000;
#X obj 27 199 s pd-netOSC2.pd;
#X connect 0 0 9 0;
#X connect 1 0 2 0;
#X connect 2 0 0 0;
#X connect 3 0 4 0;
#X connect 4 0 5 0;
#X connect 4 0 2 1;
#X connect 6 0 8 0;
#X connect 7 0 1 0;
#X connect 7 1 3 0;
#X connect 8 0 7 0;
#X restore 321 75 pd \$0-autosave;
#X msg 108 126 192.168.1.14;
#X connect 0 0 1 0;
#X connect 0 0 6 0;
#X connect 3 0 4 0;
#X connect 4 0 2 0;
#X connect 6 0 12 0;
#X connect 6 0 10 0;
#X connect 10 0 7 0;
#X connect 12 0 5 0;
#X restore 245 209 pd \$0-init;
#X obj 295 26 bng 46 250 50 0 empty \$0-ip_connect connect 4 21 0 10
#fcfcfc #000000 #000000;
#X obj 419 95 s dev_ipaddr;
#X obj 407 177 symbol, f 7;
#X symbolatom 410 197 17 0 0 0 - - -, f 17;
#X symbolatom 419 72 15 0 0 2 to-netOSC to-netOSC -, f 15;
#N canvas 1687 468 450 500 \$0-osc 0;
#X obj 11 12 r parsedOSC;
#X obj 11 56 route z;
#X obj 11 78 sel 1;
#X obj 11 107 bng 46 250 50 0 \$0-ip_connect empty connect 4 21 0 10
#fcfcfc #000000 #000000;
#X obj 282 188 print;
#X obj 11 34 route refresh_connection mpanic;
#X obj 118 64 route z;
#X obj 118 86 sel 1;
#X obj 118 115 bng 73 250 50 0 midipanic empty PANIC 1 94 0 24 #fcfcfc
#000000 #8d0000;
#X connect 0 0 4 0;
#X connect 0 0 5 0;
#X connect 1 1 2 0;
#X connect 2 0 3 0;
#X connect 5 0 1 0;
#X connect 5 1 6 0;
#X connect 6 1 7 0;
#X connect 7 0 8 0;
#X restore 204 192 pd \$0-osc;
#X floatatom 156 65 5 0 0 1 port-in netport-in dduumm, f 5;
#X obj 558 109 bng 46 250 50 0 empty \$0-ip_connect2 2 23 21 0 10 #fcfcfc
#000000 #000000;
#X obj 622 180 symbol, f 7;
#X symbolatom 625 200 17 0 0 0 - - -, f 17;
#X symbolatom 620 69 15 0 0 2 to-netOSC2 to-netOSC2 -, f 15;
#X obj 620 92 s dev2_ipaddr;
#X msg 294 389 192.168.1.11;
#X obj 391 12 inlet;
#X obj 522 12 inlet;
#X obj 534 533 r udpOUT2;
#X obj 536 471 r udpOUT2-2;
#X obj 536 500 print u2-2;
#X obj 532 402 route 1 2 3 4;
#X obj 536 447 print pasredOSC-2;
#N canvas 1602 409 450 325 io_midi 0;
#X obj 24 -165 midiin;
#X obj 134 -106 ct0;
#X floatatom 169 -41 5 0 0 0 - - -, f 5;
#X floatatom 185 -70 5 0 0 0 - - -, f 5;
#X msg 148 -172 3;
#X obj 34 -69 pack;
#X obj 24 -136 t b f;
#X obj 34 -40 route 0 1 2;
#X floatatom 34 -11 5 0 0 0 - - -, f 5;
#X floatatom 90 -4 5 0 0 0 - - -, f 5;
#X floatatom 145 4 5 0 0 0 - - -, f 5;
#X connect 0 0 6 0;
#X connect 1 0 2 0;
#X connect 1 0 5 0;
#X connect 1 1 3 0;
#X connect 4 0 1 1;
#X connect 5 0 7 0;
#X connect 6 0 1 0;
#X connect 6 1 5 1;
#X connect 7 0 8 0;
#X connect 7 1 9 0;
#X connect 7 2 10 0;
#X restore 543 567 pd io_midi;
#N canvas 1547 860 956 639 \$0-errata 0;
#X msg 339 290 192.168.1.\$1;
#X floatatom 36 240 5 0 0 0 - - -, f 5;
#X floatatom 83 242 5 0 0 0 - - -, f 5;
#X obj 164 184 ct0;
#X msg 232 136 256;
#X obj 164 27 tgl 48 0 empty empty empty 17 7 0 10 #fcfcfc #7b0000
#000000 0 1;
#X obj 164 136 metro 50;
#X obj 164 91 t f b;
#X obj 53 472 s udpOUT2;
#X msg 11 427 ttt;
#X msg 53 432 ttt cfg ipaddr_osc;
#X obj 44 80 bng 56 250 50 0 empty empty empty 17 7 0 10 #fcfcfc #000000
#000000;
#X msg 52 369 192.168.1.\$1 cfg ipaddr_osc;
#X obj 190 231 symbol;
#X symbolatom 190 254 10 0 0 0 - - -, f 10;
#X obj 339 137 shell;
#X msg 339 108 /home/fyl/get_wifi_addr;
#X obj 339 167 symbol;
#X symbolatom 401 187 17 0 0 0 - - -, f 17;
#X msg 339 223 \$1 cfg ipaddr_osc;
#X obj 339 252 s udpOUT2;
#X obj 403 138 bng 15 250 50 0 empty empty empty 17 7 0 10 #fcfcfc
#000000 #000000;
#X obj 236 563 s udpOUT2;
#X obj 297 395 tgl 14 0 empty empty empty 17 7 0 10 #fcfcfc #000000
#000000 0 1;
#X obj 241 424 + 160;
#X floatatom 521 439 5 0 0 0 - - -, f 5;
#X floatatom 521 467 5 0 0 0 - - -, f 5;
#X symbolatom 465 526 10 0 0 0 - - -, f 10;
#X msg 415 438 led\$1;
#X msg 335 467 0 1 led\$1;
#X obj 335 422 + 160;
#X msg 335 392 1;
#X msg 258 394 1;
#X msg 241 469 1 1 led\$1;
#X obj 599 265 tosym;
#X symbolatom 598 301 10 0 0 3 (symbol) - -, f 10;
#X msg 598 207 3;
#X floatatom 598 236 5 0 0 0 - - -, f 5;
#X floatatom 679 301 5 0 0 3 (float) - -, f 5;
#X obj 597 350 fromsym;
#X floatatom 597 379 5 0 0 3 (float) - -, f 5;
#X msg 633 203 4;
#X msg 586 18 (on/off: 0-1) (page: 1-2) led(161-224);
#X msg 592 81 \$1 1 led\$2;
#X connect 3 0 1 0;
#X connect 3 0 12 0;
#X connect 3 0 13 0;
#X connect 3 1 2 0;
#X connect 4 0 3 1;
#X connect 5 0 7 0;
#X connect 6 0 3 0;
#X connect 7 0 6 0;
#X connect 7 1 4 0;
#X connect 9 0 10 0;
#X connect 10 0 8 0;
#X connect 11 0 3 0;
#X connect 12 0 8 0;
#X connect 13 0 14 0;
#X connect 15 0 17 0;
#X connect 16 0 15 0;
#X connect 17 0 18 0;
#X connect 17 0 19 0;
#X connect 19 0 20 0;
#X connect 21 0 17 0;
#X connect 24 0 25 0;
#X connect 24 0 28 0;
#X connect 24 0 33 0;
#X connect 25 0 26 0;
#X connect 28 0 27 0;
#X connect 29 0 22 0;
#X connect 30 0 29 0;
#X connect 31 0 30 0;
#X connect 32 0 24 0;
#X connect 33 0 22 0;
#X connect 34 0 35 0;
#X connect 34 0 38 0;
#X connect 35 0 39 0;
#X connect 36 0 37 0;
#X connect 37 0 34 0;
#X connect 39 0 40 0;
#X connect 41 0 37 0;
#X restore 540 607 pd \$0-errata;
#N canvas 642 32 956 866 \$0-errata2 0;
#X obj 877 -240 list length;
#X obj 692 -245 t a a;
#X obj 735 -169 tgl 15 0 empty empty empty 17 7 0 10 #fcfcfc #000000
#000000 0 -1;
#X obj 735 -197 - 3;
#X obj 696 -135 spigot;
#X obj 696 -47 list split 1;
#X symbolatom 696 129 24 0 0 0 - - -, f 24;
#X obj 1039 -174 * -1;
#X obj 1039 -203 - 4;
#X obj 1039 -145 tgl 15 0 empty empty empty 17 7 0 10 #fcfcfc #000000
#000000 0 1;
#X obj 961 -125 spigot;
#X obj 957 -37 list split 1;
#X symbolatom 957 105 16 0 0 0 - - -, f 16;
#X symbolatom 979 79 3 0 0 0 - - -, f 3;
#X obj 978 -3 unpack s f;
#X floatatom 1045 81 5 0 0 0 - - -, f 5;
#X floatatom 848 6 4 0 0 0 - - -, f 4;
#X symbolatom 739 6 3 0 0 0 - - -, f 3;
#X symbolatom 793 6 3 0 0 0 - - -, f 3;
#X obj 736 -14 unpack s s f, f 16;
#X floatatom 845 91 5 0 0 0 - - -, f 5;
#X obj 978 26 sel z;
#X obj 978 55 bng 15 250 50 0 empty empty empty 17 7 0 10 #fcfcfc #000000
#000000;
#X obj 736 41 sym2f;
#X floatatom 737 91 5 0 0 0 - - -, f 5;
#X obj 790 42 sym2f;
#X floatatom 792 91 5 0 0 0 - - -, f 5;
#X obj 790 71 inv_f 8;
#X obj 400 -48 route pulse_count_grid;
#X floatatom 512 15 4 0 0 0 - - -, f 4;
#X symbolatom 403 15 3 0 0 0 - - -, f 3;
#X symbolatom 457 15 3 0 0 0 - - -, f 3;
#X obj 400 -5 unpack s s f, f 16;
#X obj 400 80 sym2f;
#X floatatom 401 100 5 0 0 0 - - -, f 5;
#X obj 454 51 sym2f;
#X floatatom 456 100 5 0 0 0 - - -, f 5;
#X obj 454 80 inv_f 8;
#X obj 401 128 *;
#X floatatom 314 148 5 0 0 0 - - -, f 5;
#X floatatom 139 199 5 0 0 0 - - -, f 5;
#X obj 401 157 + 160;
#X obj 201 186 pack;
#X obj 512 133 sel 1;
#X obj 512 162 tgl 15 0 empty empty empty 17 7 0 10 #fcfcfc #000000
#000000 0 1;
#X floatatom 312 186 5 0 0 0 - - -, f 5;
#X obj 324 240 print pppppppp;
#X obj 201 250 s udpOUT2;
#X msg 173 44 3;
#X floatatom 173 73 5 0 0 0 - - -, f 5;
#X obj 173 101 inv_f 8;
#X floatatom 173 130 5 0 0 0 - - -, f 5;
#X obj 173 158 inv_f 8;
#X floatatom 3 187 5 0 0 0 - - -, f 5;
#X msg 201 221 \$2 1 led\$1;
#X connect 0 0 3 0;
#X connect 0 0 8 0;
#X connect 1 0 4 0;
#X connect 1 0 10 0;
#X connect 1 1 0 0;
#X connect 2 0 4 1;
#X connect 3 0 2 0;
#X connect 4 0 5 0;
#X connect 4 0 28 0;
#X connect 5 0 6 0;
#X connect 5 1 19 0;
#X connect 7 0 9 0;
#X connect 8 0 7 0;
#X connect 9 0 10 1;
#X connect 10 0 11 0;
#X connect 11 0 12 0;
#X connect 11 1 14 0;
#X connect 14 0 13 0;
#X connect 14 0 21 0;
#X connect 14 1 15 0;
#X connect 19 0 17 0;
#X connect 19 0 23 0;
#X connect 19 1 18 0;
#X connect 19 1 25 0;
#X connect 19 2 16 0;
#X connect 19 2 20 0;
#X connect 21 0 22 0;
#X connect 23 0 24 0;
#X connect 25 0 27 0;
#X connect 27 0 26 0;
#X connect 28 0 32 0;
#X connect 29 0 43 0;
#X connect 32 0 30 0;
#X connect 32 0 33 0;
#X connect 32 1 31 0;
#X connect 32 1 35 0;
#X connect 32 2 29 0;
#X connect 33 0 34 0;
#X connect 34 0 38 0;
#X connect 35 0 37 0;
#X connect 36 0 38 1;
#X connect 37 0 36 0;
#X connect 38 0 39 0;
#X connect 38 0 41 0;
#X connect 41 0 40 0;
#X connect 41 0 42 0;
#X connect 42 0 54 0;
#X connect 43 0 44 0;
#X connect 44 0 42 1;
#X connect 44 0 45 0;
#X connect 48 0 49 0;
#X connect 49 0 50 0;
#X connect 50 0 51 0;
#X connect 51 0 52 0;
#X connect 52 0 53 0;
#X connect 54 0 46 0;
#X connect 54 0 47 0;
#X restore 539 631 pd \$0-errata2;
#X msg 293 146 192.168.1.14;
#X obj 20 27 vradio 15 0 0 9 empty empty empty 0 -8 0 10 #fcfcfc #000000
#000000 0;
#X obj 39 27 vradio 15 0 0 9 empty empty empty 0 -8 0 10 #fcfcfc #000000
#000000 0;
#X obj 57 28 vradio 15 0 0 9 empty empty empty 0 -8 0 10 #fcfcfc #000000
#000000 0;
#X msg 583 30 192.168.1.10;
#X connect 4 0 2 0;
#X connect 5 0 3 0;
#X connect 6 0 4 0;
#X connect 6 0 5 0;
#X connect 7 0 12 0;
#X connect 8 0 7 0;
#X connect 9 0 13 0;
#X connect 9 0 8 0;
#X connect 10 0 14 0;
#X connect 11 0 13 0;
#X connect 12 0 15 0;
#X connect 13 0 8 0;
#X connect 19 0 18 0;
#X connect 19 0 23 0;
#X connect 20 0 18 0;
#X connect 21 0 20 0;
#X connect 22 0 20 1;
#X connect 24 0 23 0;
#X connect 25 0 24 0;
#X connect 26 0 24 1;
#X connect 29 0 30 0;
#X connect 29 1 28 0;
#X connect 32 0 33 0;
#X connect 32 1 31 0;
#X connect 34 0 40 0;
#X connect 35 0 46 0;
#X connect 38 0 40 0;
#X connect 38 0 45 0;
#X connect 40 0 41 0;
#X connect 40 0 29 0;
#X connect 42 0 39 0;
#X connect 45 0 46 0;
#X connect 46 0 47 0;
#X connect 46 0 32 0;
#X connect 48 0 49 0;
#X connect 51 0 39 0;
#X connect 52 0 49 0;
#X connect 54 0 55 0;
#X connect 56 3 57 0;
#X connect 61 0 39 0;
#X connect 65 0 49 0;
#X coords 0 -1 1 1 237 153 2 15 19;
