#N canvas 2562 61 956 992 12;
#X obj 78 162 t b f;
#X floatatom 161 236 5 0 0 0 - - -, f 5;
#X obj 79 11 sel 1;
#X obj 184 10 sel 1;
#X floatatom 99 124 5 0 0 0 - - -, f 5;
#X floatatom 185 117 5 0 0 0 - - -, f 5;
#X obj 185 85 + 0.5;
#X obj 79 84 - 0.5;
#X floatatom 163 296 5 0 0 1 program_change_CH10 - program_change_CH10
, f 5;
#X obj 79 238 mod 128;
#X obj 183 -27 inlet;
#X obj 75 -44 inlet;
#X obj 185 46 v \$0-prgchng;
#X obj 79 45 v \$0-prgchng;
#X obj 77 195 v \$0-prgchng;
#X obj 79 293 pgmout 10;
#X obj 328 -31 inlet;
#X connect 0 0 14 0;
#X connect 0 1 14 0;
#X connect 2 0 13 0;
#X connect 3 0 12 0;
#X connect 6 0 5 0;
#X connect 6 0 0 0;
#X connect 7 0 4 0;
#X connect 7 0 0 0;
#X connect 9 0 8 0;
#X connect 9 0 15 0;
#X connect 10 0 3 0;
#X connect 11 0 2 0;
#X connect 12 0 6 0;
#X connect 13 0 7 0;
#X connect 14 0 1 0;
#X connect 14 0 9 0;
#X connect 16 0 15 1;
