#N canvas 2562 314 956 992 12;
#X obj 78 292 t b f;
#X floatatom 228 341 5 0 0 0 - - -, f 5;
#X floatatom 99 254 5 0 0 0 - - -, f 5;
#X floatatom 355 247 5 0 0 0 - - -, f 5;
#X floatatom 204 436 5 0 0 1 program_change_CH10 - #0-program_change_CH10
, f 5;
#X obj 79 368 mod 128;
#X obj 353 -40 inlet;
#X obj 75 -44 inlet;
#X obj 355 176 v \$0-prgchng;
#X obj 79 175 v \$0-prgchng;
#X obj 77 325 v \$0-prgchng;
#X obj 79 423 pgmout 10;
#X obj 537 -34 inlet;
#X obj 110 15 t b f;
#X obj 75 96 metro;
#X floatatom 173 87 5 0 0 0 - - -, f 5;
#X obj 76 61 tgl 15 0 empty empty empty 17 7 0 10 #fcfcfc #000000 #000000
0 1;
#X msg 110 44 1;
#X obj 25 125 bng 15 250 50 0 empty empty empty 17 7 0 10 #fcfcfc #000000
#000000;
#X msg 76 15 0;
#X obj 76 -14 sel 0 z;
#X obj 79 214 - 1;
#X obj 172 51 * 100;
#X obj 387 17 t b f;
#X obj 352 98 metro;
#X floatatom 450 89 5 0 0 0 - - -, f 5;
#X obj 353 63 tgl 15 0 empty empty empty 17 7 0 10 #fcfcfc #000000
#000000 0 1;
#X msg 387 46 1;
#X obj 302 127 bng 15 250 50 0 empty empty empty 17 7 0 10 #fcfcfc
#000000 #000000;
#X msg 353 17 0;
#X obj 353 -12 sel 0 z;
#X obj 449 53 * 100;
#X obj 355 215 + 1;
#X floatatom 537 231 5 0 0 0 - - -, f 5;
#X obj 526 465 s udpOUT2;
#X msg 545 328 \$1 prgchg channel;
#X msg 554 423 \$1 prgchg pg_number;
#X obj 537 259 f2sym;
#X symbolatom 611 289 10 0 0 0 - - -, f 10;
#N canvas 1602 440 956 638 \$0-f2sym 1;
#X obj 116 50 inlet;
#X obj 148 109 >= 100;
#X obj 116 79 t f f;
#X obj 116 138 pack;
#X msg 116 167 \$2 \$1;
#X obj 116 197 route 1 0;
#X floatatom 116 265 5 0 0 0 - - -, f 5;
#X obj 199 327 i;
#X floatatom 199 356 5 0 0 0 - - -, f 5;
#X obj 116 293 t f f;
#X obj 116 372 -;
#X floatatom 223 391 5 0 0 0 - - -, f 5;
#X obj 116 430 f2sym;
#X symbolatom 18 418 10 0 0 0 - - -, f 10;
#X obj 116 237 / 100;
#X obj 116 401 * 100;
#X obj 116 509 pack s s;
#X obj 174 480 f2sym;
#X msg 193 445 1, f 1;
#X symbolatom 204 509 10 0 0 0 - - -, f 10;
#X msg 116 538 \$2\$1;
#X obj 117 568 t s;
#X symbolatom 367 530 10 0 0 0 - - -, f 10;
#X obj 251 445 loadbang;
#X obj 363 268 f2sym;
#X obj 367 558 outlet;
#X connect 0 0 2 0;
#X connect 1 0 3 1;
#X connect 2 0 3 0;
#X connect 2 1 1 0;
#X connect 3 0 4 0;
#X connect 4 0 5 0;
#X connect 5 0 14 0;
#X connect 5 1 24 0;
#X connect 6 0 9 0;
#X connect 7 0 8 0;
#X connect 7 0 10 1;
#X connect 9 0 10 0;
#X connect 9 1 7 0;
#X connect 10 0 11 0;
#X connect 10 0 15 0;
#X connect 12 0 13 0;
#X connect 12 0 16 0;
#X connect 14 0 6 0;
#X connect 15 0 12 0;
#X connect 16 0 20 0;
#X connect 17 0 16 1;
#X connect 17 0 19 0;
#X connect 18 0 17 0;
#X connect 20 0 21 0;
#X connect 21 0 22 0;
#X connect 22 0 25 0;
#X connect 23 0 18 0;
#X connect 24 0 22 0;
#X restore 584 395 pd \$0-f2sym;
#X connect 0 0 10 0;
#X connect 0 1 10 0;
#X connect 5 0 4 0;
#X connect 5 0 11 0;
#X connect 5 0 39 0;
#X connect 6 0 30 0;
#X connect 7 0 20 0;
#X connect 8 0 32 0;
#X connect 9 0 21 0;
#X connect 10 0 1 0;
#X connect 10 0 5 0;
#X connect 12 0 33 0;
#X connect 13 0 17 0;
#X connect 13 1 22 0;
#X connect 14 0 18 0;
#X connect 14 0 9 0;
#X connect 16 0 14 0;
#X connect 17 0 16 0;
#X connect 19 0 16 0;
#X connect 20 0 19 0;
#X connect 20 2 13 0;
#X connect 21 0 2 0;
#X connect 21 0 0 0;
#X connect 22 0 15 0;
#X connect 22 0 14 1;
#X connect 23 0 27 0;
#X connect 23 1 31 0;
#X connect 24 0 28 0;
#X connect 24 0 8 0;
#X connect 26 0 24 0;
#X connect 27 0 26 0;
#X connect 29 0 26 0;
#X connect 30 0 29 0;
#X connect 30 2 23 0;
#X connect 31 0 25 0;
#X connect 31 0 24 1;
#X connect 32 0 3 0;
#X connect 32 0 0 0;
#X connect 33 0 11 1;
#X connect 33 0 37 0;
#X connect 35 0 34 0;
#X connect 36 0 34 0;
#X connect 37 0 38 0;
#X connect 37 0 35 0;
#X connect 39 0 36 0;
